<?xml version="1.0" encoding="UTF-8" standalone="no"?>
<!-- Created with Inkscape (http://www.inkscape.org/) -->

<svg
   xmlns:dc="http://purl.org/dc/elements/1.1/"
   xmlns:cc="http://creativecommons.org/ns#"
   xmlns:rdf="http://www.w3.org/1999/02/22-rdf-syntax-ns#"
   xmlns:svg="http://www.w3.org/2000/svg"
   xmlns="http://www.w3.org/2000/svg"
   xmlns:sodipodi="http://sodipodi.sourceforge.net/DTD/sodipodi-0.dtd"
   xmlns:inkscape="http://www.inkscape.org/namespaces/inkscape"
   width="247.74666mm"
   height="228.35139mm"
   viewBox="0 0 247.74666 228.35139"
   version="1.1"
   id="svg8"
   inkscape:version="0.92.3 (2405546, 2018-03-11)"
   sodipodi:docname="LinkAja_logo.svg">
  <defs
     id="defs2" />
  <sodipodi:namedview
     id="base"
     pagecolor="#ffffff"
     bordercolor="#666666"
     borderopacity="1.0"
     inkscape:pageopacity="0.0"
     inkscape:pageshadow="2"
     inkscape:zoom="0.0875"
     inkscape:cx="1551.7311"
     inkscape:cy="-1129.2358"
     inkscape:document-units="mm"
     inkscape:current-layer="layer1"
     showgrid="false"
     fit-margin-top="0"
     fit-margin-left="0"
     fit-margin-right="0"
     fit-margin-bottom="0"
     inkscape:window-width="1366"
     inkscape:window-height="745"
     inkscape:window-x="-8"
     inkscape:window-y="-8"
     inkscape:window-maximized="1" />
  <metadata
     id="metadata5">
    <rdf:RDF>
      <cc:Work
         rdf:about="">
        <dc:format>image/svg+xml</dc:format>
        <dc:type
           rdf:resource="http://purl.org/dc/dcmitype/StillImage" />
        <dc:title></dc:title>
      </cc:Work>
    </rdf:RDF>
  </metadata>
  <g
     inkscape:label="Layer 1"
     inkscape:groupmode="layer"
     id="layer1"
     transform="translate(187.24096,-221.79449)">
    <path
       style="fill:#ea232a;fill-opacity:1;stroke-width:0.85422623"
       d="m -178.98699,445.68462 c -4.7105,-2.45368 -8.42215,-4.60364 -8.24809,-4.77769 0.60208,-0.6021 23.14228,-5.41199 38.88247,-8.29721 34.06078,-6.24344 74.556406,-11.24057 114.893421,-14.17776 16.611471,-1.20958 76.708626,-1.24989 87.131075,-0.0584 l 6.833809,0.78122 -7.702617,0.11948 c -13.674385,0.21212 -45.0338764,2.40638 -69.604856,4.87034 -46.50727,4.66372 -98.211402,13.26169 -135.615772,22.5518 -7.63869,1.89722 -14.81471,3.44949 -15.94671,3.44949 -1.13199,0 -5.91222,-2.00756 -10.62273,-4.46124 z m 65.02159,-46.81215 c -0.69845,-1.93026 2.22563,-2.79409 3.50022,-3.34324 5.72626,-2.45456 9.75604,-6.45594 11.103876,-11.02563 0.64519,-2.18744 2.61035,-14.54823 4.36703,-27.4684 1.75668,-12.92017 3.33508,-22.91338 3.50757,-23.50066 0.127229,-0.43316 0.472957,-1.97557 2.326946,-2.14149 4.730819,-0.0457 8.243522,0.0154 13.09205,0.0154 2.67749,-0.25767 2.151656,2.67302 1.941477,4.55032 -0.211018,2.37107 -0.848885,6.94922 -1.592293,12.5342 -0.906794,6.81245 -2.26178,16.99417 -3.01107,22.62604 -1.68407,12.65783 -2.618139,16.55511 -5.53046,23.07506 -3.465317,7.75797 -8.762652,12.26571 -18.366036,15.47344 -1.94014,0.60747 -7.50137,2.49945 -8.10682,0.81816 -1.25514,-4.02445 -2.14631,-7.5221 -3.23249,-11.6132 z m 110.2819736,-4.24412 c -6.3997346,-2.58262 -6.0979441,-12.56052 0.6153089,-16.65383 4.24846,-2.59044 10.2180883,-2.14985 13.2855295,0.91759 7.557638,7.55763 -3.5565774,19.91066 -13.9008384,15.73624 z m -48.3709866,-5.96039 c -18.815105,-3.21291 -18.690137,-25.64699 -14.475214,-38.46657 5.27848,-14.839 18.140664,-19.14999 28.712611,-19.52622 8.922,-0.30539 21.289744,1.35382 24.39448,3.27265 0.857361,0.52987 0.453876,5.67315 -1.941075,24.74335 -1.66288,13.24094 -3.481596,24.6265 -4.041592,25.30125 -2.979165,3.58967 -22.938691,6.44798 -32.64921,4.67554 z m 16.413884,-17.75393 c 2.018936,-7.51411 2.872138,-14.29816 4.316477,-22.226 -0.180131,-2.73276 -4.792143,-2.75131 -5.96489,-2.75777 -6.10846,0 -9.716635,3.42939 -11.629265,11.05301 -2.623243,10.45608 0.116013,16.28223 7.655345,16.28223 2.382976,-0.22171 4.8701,-0.0888 5.622333,-2.35147 z m -137.513251,11.70026 c 5.14333,-12.56376 25.80042,-57.5523 30.7586,-66.86947 0.93702,-2.32281 3.40541,-2.78067 5.0945,-2.94367 4.85889,-0.22241 9.05915,-0.16283 13.32545,-0.13158 4.39601,0.0383 4.46069,1.581 5.02729,4.84888 0.6912,3.25578 9.26812,54.46729 11.20936,66.76018 0.24809,2.04116 0.7485,2.67658 -1.90887,2.68072 -3.68237,0.0107 -12.54441,0.48937 -15.55081,0.26243 -0.96126,-0.12464 -1.58774,-0.75508 -1.737,-1.46414 -0.27484,-1.31827 -0.58502,-3.58169 -0.79589,-5.94161 l -0.54715,-6.12338 h -11.03772 -11.03772 l -2.41326,5.88835 c -0.85824,2.09411 -1.79657,4.16009 -2.4956,5.5311 -0.48948,1.25715 -1.21903,1.8368 -2.31114,2.0742 -2.70172,-0.0229 -12.27816,0.33238 -15.87821,0.016 -1.78033,-0.81948 -0.17001,-3.44339 0.29817,-4.58801 z m 42.92944,-25.97342 c -0.31283,-3.3083 -2.42472,-20.37238 -2.92032,-22.89339 -0.13025,-0.27074 -0.19228,-0.18284 -0.32576,-0.0231 -1.30422,1.95803 -8.35956,19.27692 -9.56125,23.29849 -0.14522,0.55518 0.21559,0.75853 0.74044,0.71294 1.78955,-0.12144 9.10507,-0.25864 11.33016,-0.3438 0.63322,-0.0487 0.69623,-0.27121 0.73673,-0.75114 z m 127.3896646,8.29593 c 0.285773,-2.23167 0.911357,-8.286 1.390185,-13.45407 0.47882798,-5.16807 1.24561547,-13.2405 1.70398498,-17.93875 0.3478598,-3.56553 0.65343344,-7.02651 0.78585512,-8.84747 0.2674883,-1.63253 2.2414502,-1.82461 3.5382669,-1.83742 4.3232279,0.0458 8.3949074,-0.21053 12.2827494,0.1485 1.83829,0.18818 2.606702,0.59343 2.61341,1.68647 -1.753479,8.99546 -8.053716,40.02869 -8.538792,41.95116 -0.417994,1.65658 -0.587407,2.14516 -3.1173406,2.28911 -3.0981758,-0.0502 -5.6825703,0.11234 -8.8266908,0.0959 -1.8031497,-0.0226 -2.2850726,-0.55246 -1.831631,-4.09351 z M -90.079178,318.83143 c 0,-5.48257 3.528468,-9.66101 7.945546,-11.41975 3.817528,-1.33761 8.096095,-1.33192 10.373724,1.26997 4.042373,4.69953 1.388911,11.64245 -3.332602,15.2598 -6.050325,4.16162 -14.887958,1.70126 -14.986668,-5.11002 z m 108.389727,-11.5549 c -1.321197,-2.93641 -5.560004,-12.20026 -9.4195694,-20.58635 -3.859565,-8.3861 -6.813393,-15.77906 -6.564062,-16.42881 0.24934,-0.64976 4.550976,-5.99316 9.5591934,-11.87425 l 8.152337,-9.57317 c 0.532836,-0.64393 1.144882,-1.43322 1.884165,-1.44358 4.913118,0.0249 10.004556,0.31821 14.691792,0.27151 3.491921,-0.0294 5.25002,-0.25556 2.659255,2.37348 -1.658713,2.05362 -4.927099,5.81233 -8.665883,9.9369 -5.402986,5.9605 -9.823602,10.997 -9.823602,11.19222 0,0.19523 4.051466,9.0969 9.003262,19.78151 3.890289,8.39417 7.104284,15.90356 8.187667,19.03913 0.462645,1.0647 0.05583,1.97648 -0.932695,2.22526 -1.310761,0.30454 -3.668843,0.42513 -7.72489,0.42513 h -6.075815 c -1.484115,0.15503 -2.576343,-0.10526 -3.147761,-1.37527 z m -181.833369,-6.25055 c -5.46767,-2.72465 -8.05249,-6.17278 -8.52344,-11.37023 -0.28224,-3.11474 4.81358,-44.98868 7.07023,-58.3033 0.55151,-3.12665 0.79025,-3.30541 3.78808,-3.30541 h 5.89786 c 3.09829,0 5.91845,-0.0519 7.69224,0.0491 2.42436,0.0347 1.98088,1.56235 1.79571,3.39099 -0.41686,4.08333 -1.71478,12.92838 -3.3447,24.31714 -2.89201,20.20743 -3.62804,27.33733 -2.93551,28.43632 0.809,1.28384 2.86523,1.49583 16.48764,1.69985 l 12.1848,0.18247 c 2.90219,-0.16162 3.50262,0.5508 3.21594,3.15667 -0.71042,4.31365 -1.10022,7.7506 -1.80683,11.61519 -0.4859,2.41198 -2.04238,1.78049 -4.46742,1.92857 l -14.24438,0.1982 c -18.26694,0.22868 -18.36386,0.2202 -22.81022,-1.99552 z m 140.50682,1.5523 c -0.184505,-0.35237 0.325169,-5.25349 1.132618,-10.89138 0.80744,-5.6379 2.493546,-17.74655 3.746901,-26.90813 3.558186,-26.00902 4.727536,-33.84582 5.223696,-36.84323 0.522764,-3.49852 0.525907,-3.3054 3.9538834,-3.3054 h 5.4363352 c 2.1212656,0 3.77720558,-0.0276 5.0557019,0.0139 4.8819189,0.15848 4.2603969,-0.26266 3.0284041,7.29802 -0.4656108,2.85743 -2.015966,15.43187 -3.445231,26.00292 -3.599205,26.62022 -5.959885,42.94346 -6.393157,44.20621 -0.406091,1.18354 -17.1321986,1.58626 -17.7391516,0.42711 z m -92.87602,-2.02552 c 2.2678,-19.02386 4.43321,-33.40858 6.95167,-51.11171 0.18849,-2.1189 2.2712,-2.36478 4.70504,-2.36703 2.7685,-0.003 5.58241,-0.0399 8.218692,0.048 5.10597,0.0173 6.44835,0.70075 5.919431,4.11739 -2.261812,16.61933 -5.058231,31.45112 -7.993604,48.34911 -0.54884,2.86093 -1.218916,2.77623 -3.953329,2.77623 -3.18294,0.0103 -8.83184,0.11747 -11.71714,0.0375 -1.68847,-0.29832 -2.07161,-0.48985 -2.13076,-1.84949 z m 36.040937,-42.58766 c 1.400835,-7.35648 2.371143,-8.50459 4.406119,-9.83796 2.510611,-1.64501 21.060119,-3.35922 27.463929,-2.53801 0.893699,0.12763 1.745021,0.28889 2.555853,0.48151 18.760999,4.45682 15.845126,25.70083 14.62537,35.47446 -1.285474,9.33659 -2.547482,17.84053 -2.804459,18.89763 -0.447282,1.83992 -0.846393,1.92201 -9.344013,1.92201 -2.854331,0 -4.34545,-0.0985 -5.969877,-0.25082 -2.624298,-0.1713 -2.867365,-0.76078 -2.606287,-2.67025 0.956576,-7.80013 2.246845,-14.52715 3.208179,-21.81297 1.29397,-9.94407 0.949317,-19.76128 -11.388799,-17.65063 -2.11493,0.5366 -2.693326,0.70586 -2.984983,2.81504 -1.539237,9.82189 -2.892259,19.96866 -4.300298,29.57555 -0.310046,2.29272 -0.741534,4.68961 -1.184412,6.81331 -0.11488,0.54075 -0.177144,1.02424 -0.275603,1.38284 -0.12561,0.42385 -0.417855,0.86473 -0.697313,0.42801 -1.982281,-3.60989 -11.311059,-3.00818 -15.202777,-0.35859 -1.953004,1.35755 -2.355479,2.08728 -1.557359,-2.05084 0.140004,-0.87772 0.276431,-1.75425 0.409856,-2.62979 1.931576,-12.67518 3.233842,-25.14316 5.646874,-37.9905 z m -26.634087,-21.77155 c -2.08445,-7.10769 4.12053,-14.1323 11.069024,-14.37693 9.415563,-0.62922 12.015023,12.32116 2.382482,18.1942 -5.579523,2.55292 -11.443706,2.01154 -13.451506,-3.81727 z"
       id="path826"
       inkscape:connector-curvature="0"
       sodipodi:nodetypes="ccssccssssccccssccccscsccccsscccccscccccscccccccccccccccsccccccccccccccccccccccccccccccccccsssccccccccccsccccccccccccccccsssccsccccccccccccccssccccccccccccccccccccc" />
  </g>
</svg>
